<?xml version="1.0" standalone="no"?>
<!DOCTYPE svg PUBLIC "-//W3C//DTD SVG 20010904//EN"
 "http://www.w3.org/TR/2001/REC-SVG-20010904/DTD/svg10.dtd">
<svg version="1.0" xmlns="http://www.w3.org/2000/svg"
 width="400.000000pt" height="400.000000pt" viewBox="0 0 400.000000 400.000000"
 preserveAspectRatio="xMidYMid meet">
<metadata>
Created by potrace 1.11, written by Peter Selinger 2001-2013
</metadata>
<g transform="translate(0.000000,400.000000) scale(0.100000,-0.100000)"
fill="#000000" stroke="none">
<path d="M1871 3937 c-6 -6 -11 -8 -11 -4 0 9 -114 -54 -118 -65 -2 -4 -8 -8
-13 -8 -10 0 -155 -95 -175 -114 -6 -6 -22 -20 -37 -30 -14 -11 -24 -23 -21
-28 3 -4 0 -8 -7 -8 -12 0 -16 -3 -121 -104 -38 -35 -68 -61 -68 -57 -1 3 -7
-5 -15 -19 -8 -14 -14 -21 -15 -16 0 8 -45 -37 -89 -90 -30 -36 -44 -100 -47
-211 -1 -62 1 -113 4 -113 4 0 7 -49 7 -109 0 -110 -6 -132 -39 -137 -7 -1
-53 -21 -102 -43 -49 -23 -90 -42 -92 -41 -2 1 -14 -10 -27 -24 -12 -13 -25
-23 -27 -20 -3 2 -17 -18 -32 -46 -15 -27 -25 -50 -21 -50 3 0 1 -8 -4 -18
-33 -63 -35 -203 -3 -292 3 -8 6 -22 8 -30 3 -15 21 -56 35 -80 5 -8 13 -24
18 -35 15 -32 176 -187 185 -178 3 3 8 -8 11 -23 23 -113 61 -170 140 -214 54
-30 58 -38 70 -160 3 -30 10 -66 15 -80 4 -14 11 -38 14 -55 2 -16 15 -52 27
-80 13 -27 24 -63 26 -80 4 -39 12 -107 14 -120 2 -12 -9 -121 -16 -155 -6
-32 -26 -131 -29 -147 -1 -7 -5 -16 -9 -19 -4 -4 -7 -14 -7 -23 0 -9 -9 -34
-19 -56 -10 -22 -18 -43 -19 -48 -1 -4 -6 -13 -12 -20 -38 -45 -50 -61 -50
-67 0 -9 -73 -40 -109 -47 -14 -2 -28 -6 -33 -9 -4 -3 -16 -7 -25 -9 -73 -17
-223 -59 -271 -75 -31 -12 -61 -22 -66 -23 -16 -3 -136 -67 -152 -80 -9 -7
-51 -46 -95 -88 -43 -41 -81 -73 -84 -71 -3 3 -5 -1 -5 -9 -1 -8 -14 -25 -30
-39 -17 -13 -30 -27 -30 -32 0 -4 -11 -20 -25 -35 -14 -15 -39 -44 -55 -63
l-29 -35 1496 -3 c823 -1 1498 0 1500 2 3 2 -3 18 -11 35 -9 17 -15 32 -14 33
9 9 -103 138 -119 138 -7 0 -13 3 -13 8 0 4 -24 18 -53 32 -47 22 -135 76
-147 89 -9 10 -44 31 -62 37 -10 4 -18 10 -18 14 0 13 -160 73 -225 85 -11 2
-20 4 -20 5 0 1 -9 3 -20 5 -22 4 -77 14 -115 22 -14 2 -36 6 -50 8 -14 2 -25
4 -25 5 0 1 -16 6 -52 13 -7 2 -16 6 -19 10 -4 4 -15 7 -25 7 -19 0 -43 33
-32 44 3 3 1 6 -4 6 -17 0 19 101 37 107 8 3 22 7 30 11 8 3 18 6 23 7 4 2 9
4 12 5 7 4 15 5 65 14 134 24 184 67 286 248 15 26 26 50 24 54 -1 4 2 10 7
13 15 11 43 68 36 75 -3 3 -1 6 5 6 7 0 12 8 12 17 0 9 9 35 19 57 23 49 46
118 43 128 -1 5 2 8 8 8 6 0 9 3 8 8 -2 8 9 55 23 98 5 18 11 49 14 70 2 22 7
59 12 84 8 51 8 255 0 342 -5 53 -3 60 24 90 16 18 29 39 29 46 0 6 0 14 0 17
1 5 68 135 133 258 20 37 34 67 30 67 -3 0 -1 6 5 13 10 12 12 17 12 38 0 5 3
8 8 5 4 -2 8 10 9 27 2 29 9 68 13 75 7 7 19 81 24 140 3 29 8 57 11 63 4 5 1
17 -7 26 -11 14 -11 16 1 8 11 -6 13 -4 6 11 -8 19 -8 34 -1 129 2 28 0 55 -4
60 -4 6 -7 17 -7 25 0 8 -12 35 -28 60 -16 25 -28 46 -27 48 1 1 1 4 1 7 -1 3
-2 8 -3 13 -6 34 -32 73 -52 78 -13 3 -24 10 -24 14 0 18 -138 40 -220 35 -46
-3 -86 -8 -91 -11 -5 -3 -9 0 -9 5 0 6 -6 11 -13 11 -7 0 -24 15 -37 33 -13
17 -38 48 -56 67 -102 111 -144 161 -144 171 0 5 -4 8 -8 5 -5 -3 -15 6 -22
19 -7 14 -19 25 -27 25 -7 0 -13 3 -13 8 0 11 -62 74 -111 113 -24 19 -63 53
-86 77 -24 23 -45 42 -48 42 -2 0 -19 14 -37 30 -18 17 -42 31 -53 31 -11 1
-29 3 -40 5 -58 10 -85 10 -94 1z"/>
</g>
</svg>
